{
  "accessors": [
    {
      "bufferView": 2,
      "componentType": 5126,
      "count": 559,
      "max": [
        0.21985000371932983,
        -0.5705940127372742,
        -0.00368200009688735
      ],
      "min": [
        -0.21985000371932983,
        -1.1214690208435059,
        -0.4568290114402771
      ],
      "type": "VEC3"
    },
    {
      "bufferView": 2,
      "byteOffset": 6708,
      "componentType": 5126,
      "count": 559,
      "max": [
        1.0,
        1.0,
        1.0
      ],
      "min": [
        -1.0,
        -1.0,
        -1.0
      ],
      "type": "VEC3"
    },
    {
      "bufferView": 1,
      "componentType": 5126,
      "count": 559,
      "max": [
        1.0,
        1.0
      ],
      "min": [
        0.0,
        0.0
      ],
      "type": "VEC2"
    },
    {
      "bufferView": 0,
      "componentType": 5125,
      "count": 2880,
      "type": "SCALAR"
    },
    {
      "bufferView": 2,
      "byteOffset": 13416,
      "componentType": 5126,
      "count": 1089,
      "max": [
        0.002607000060379505,
        2.234869956970215,
        1.0936460494995117
      ],
      "min": [
        -0.10715799778699875,
        1.1767059564590454,
        -1.0845149755477905
      ],
      "type": "VEC3"
    },
    {
      "bufferView": 2,
      "byteOffset": 26484,
      "componentType": 5126,
      "count": 1089,
      "max": [
        0.999987006187439,
        0.2876932621002197,
        0.2867206931114197
      ],
      "min": [
        0.9151456952095032,
        -0.28061097860336304,
        -0.3234141767024994
      ],
      "type": "VEC3"
    },
    {
      "bufferView": 1,
      "byteOffset": 4472,
      "componentType": 5126,
      "count": 1089,
      "max": [
        1.0,
        1.0
      ],
      "min": [
        0.0,
        0.0
      ],
      "type": "VEC2"
    },
    {
      "bufferView": 0,
      "byteOffset": 11520,
      "componentType": 5125,
      "count": 6144,
      "type": "SCALAR"
    },
    {
      "bufferView": 2,
      "byteOffset": 39552,
      "componentType": 5126,
      "count": 637,
      "max": [
        0.2641650140285492,
        -1.033087968826294,
        0.3568960130214691
      ],
      "min": [
        -0.2641650140285492,
        -1.2879140377044678,
        -0.4850980043411255
      ],
      "type": "VEC3"
    },
    {
      "bufferView": 2,
      "byteOffset": 47196,
      "componentType": 5126,
      "count": 637,
      "max": [
        0.9962370991706848,
        0.9967896938323975,
        0.999187707901001
      ],
      "min": [
        -0.9962370991706848,
        -0.998076319694519,
        -0.9999549388885498
      ],
      "type": "VEC3"
    },
    {
      "bufferView": 1,
      "byteOffset": 13184,
      "componentType": 5126,
      "count": 637,
      "max": [
        1.0,
        1.0
      ],
      "min": [
        0.0,
        0.0
      ],
      "type": "VEC2"
    },
    {
      "bufferView": 0,
      "byteOffset": 36096,
      "componentType": 5125,
      "count": 3456,
      "type": "SCALAR"
    },
    {
      "bufferView": 2,
      "byteOffset": 54840,
      "componentType": 5126,
      "count": 65532,
      "max": [
        1.4321479797363281,
        2.2339820861816406,
        1.1032160520553589
      ],
      "min": [
        -1.4334399700164795,
        -1.2145910263061523,
        -0.32729199528694153
      ],
      "type": "VEC3"
    },
    {
      "bufferView": 2,
      "byteOffset": 841224,
      "componentType": 5126,
      "count": 65532,
      "max": [
        0.9999774694442749,
        0.9998509287834167,
        0.9989723563194275
      ],
      "min": [
        -0.9998599886894226,
        -0.9999954700469971,
        -0.9954496026039124
      ],
      "type": "VEC3"
    },
    {
      "bufferView": 0,
      "byteOffset": 49920,
      "componentType": 5125,
      "count": 360792,
      "type": "SCALAR"
    },
    {
      "bufferView": 2,
      "byteOffset": 1627608,
      "componentType": 5126,
      "count": 65532,
      "max": [
        1.4306180477142334,
        1.7000290155410767,
        1.065161943435669
      ],
      "min": [
        -0.7511659860610962,
        -1.216178059577942,
        -0.886663019657135
      ],
      "type": "VEC3"
    },
    {
      "bufferView": 2,
      "byteOffset": 2413992,
      "componentType": 5126,
      "count": 65532,
      "max": [
        0.999916672706604,
        0.9446674585342407,
        0.9998006224632263
      ],
      "min": [
        -0.9999808073043823,
        -0.9998811483383179,
        -0.9997842907905579
      ],
      "type": "VEC3"
    },
    {
      "bufferView": 0,
      "byteOffset": 1493088,
      "componentType": 5125,
      "count": 361332,
      "type": "SCALAR"
    },
    {
      "bufferView": 2,
      "byteOffset": 3200376,
      "componentType": 5126,
      "count": 65532,
      "max": [
        0.7536399960517883,
        2.224658966064453,
        1.0857089757919312
      ],
      "min": [
        -0.6918309926986694,
        -1.1485300064086914,
        -0.9485859870910645
      ],
      "type": "VEC3"
    },
    {
      "bufferView": 2,
      "byteOffset": 3986760,
      "componentType": 5126,
      "count": 65532,
      "max": [
        0.9999545812606812,
        0.9987956881523132,
        0.9897162914276123
      ],
      "min": [
        -0.9999535083770752,
        -0.9999734163284302,
        -0.9998319745063782
      ],
      "type": "VEC3"
    },
    {
      "bufferView": 0,
      "byteOffset": 2938416,
      "componentType": 5125,
      "count": 358605,
      "type": "SCALAR"
    },
    {
      "bufferView": 2,
      "byteOffset": 4773144,
      "componentType": 5126,
      "count": 38797,
      "max": [
        0.6569749712944031,
        2.227066993713379,
        1.1009019613265991
      ],
      "min": [
        -1.3968709707260132,
        -1.2053589820861816,
        -1.0917550325393677
      ],
      "type": "VEC3"
    },
    {
      "bufferView": 2,
      "byteOffset": 5238708,
      "componentType": 5126,
      "count": 38797,
      "max": [
        0.9999581575393677,
        0.9961002469062805,
        0.9990114569664001
      ],
      "min": [
        -0.9999760389328003,
        -0.9999027252197266,
        -0.9997178912162781
      ],
      "type": "VEC3"
    },
    {
      "bufferView": 0,
      "byteOffset": 4372836,
      "componentType": 5125,
      "count": 183777,
      "type": "SCALAR"
    },
    {
      "bufferView": 2,
      "byteOffset": 5704272,
      "componentType": 5126,
      "count": 559,
      "max": [
        0.5951510071754456,
        -0.34074199199676514,
        0.6325410008430481
      ],
      "min": [
        0.07140599936246872,
        -0.8644869923591614,
        0.10879600048065186
      ],
      "type": "VEC3"
    },
    {
      "bufferView": 2,
      "byteOffset": 5710980,
      "componentType": 5126,
      "count": 559,
      "max": [
        1.0,
        1.0,
        1.0
      ],
      "min": [
        -1.0,
        -1.0,
        -1.0
      ],
      "type": "VEC3"
    },
    {
      "bufferView": 1,
      "byteOffset": 18280,
      "componentType": 5126,
      "count": 559,
      "max": [
        1.0,
        1.0
      ],
      "min": [
        0.0,
        0.0
      ],
      "type": "VEC2"
    },
    {
      "bufferView": 0,
      "byteOffset": 5107944,
      "componentType": 5125,
      "count": 2880,
      "type": "SCALAR"
    },
    {
      "bufferView": 2,
      "byteOffset": 5717688,
      "componentType": 5126,
      "count": 559,
      "max": [
        -0.09096799790859222,
        -0.33999699354171753,
        0.6325410008430481
      ],
      "min": [
        -0.6147130131721497,
        -0.8637419939041138,
        0.10879600048065186
      ],
      "type": "VEC3"
    },
    {
      "bufferView": 2,
      "byteOffset": 5724396,
      "componentType": 5126,
      "count": 559,
      "max": [
        1.0,
        1.0,
        1.0
      ],
      "min": [
        -1.0,
        -1.0,
        -1.0
      ],
      "type": "VEC3"
    },
    {
      "bufferView": 1,
      "byteOffset": 22752,
      "componentType": 5126,
      "count": 559,
      "max": [
        1.0,
        1.0
      ],
      "min": [
        0.0,
        0.0
      ],
      "type": "VEC2"
    },
    {
      "bufferView": 0,
      "byteOffset": 5119464,
      "componentType": 5125,
      "count": 2880,
      "type": "SCALAR"
    },
    {
      "bufferView": 2,
      "byteOffset": 5731104,
      "componentType": 5126,
      "count": 2178,
      "max": [
        1.4195090532302856,
        0.16071100533008575,
        0.4153670072555542
      ],
      "min": [
        -1.390071988105774,
        -0.5170419812202454,
        -0.10014200210571289
      ],
      "type": "VEC3"
    },
    {
      "bufferView": 2,
      "byteOffset": 5757240,
      "componentType": 5126,
      "count": 2178,
      "max": [
        0.9479901790618896,
        -0.08840740472078323,
        0.32262489199638367
      ],
      "min": [
        -0.9479901790618896,
        -0.8141046762466431,
        -0.8913466930389404
      ],
      "type": "VEC3"
    },
    {
      "bufferView": 1,
      "byteOffset": 27224,
      "componentType": 5126,
      "count": 2178,
      "max": [
        1.0,
        1.0
      ],
      "min": [
        0.0,
        0.0
      ],
      "type": "VEC2"
    },
    {
      "bufferView": 0,
      "byteOffset": 5130984,
      "componentType": 5125,
      "count": 12288,
      "type": "SCALAR"
    },
    {
      "bufferView": 2,
      "byteOffset": 5783376,
      "componentType": 5126,
      "count": 18849,
      "max": [
        0.03880300000309944,
        0.9208539724349976,
        1.7779580354690552
      ],
      "min": [
        -0.04218300059437752,
        -0.06988999992609024,
        0.7179819941520691
      ],
      "type": "VEC3"
    },
    {
      "bufferView": 2,
      "byteOffset": 6009564,
      "componentType": 5126,
      "count": 18849,
      "max": [
        0.9999995231628418,
        0.9995666742324829,
        0.9990723729133606
      ],
      "min": [
        -0.9999994039535522,
        -0.9998679757118225,
        -0.9947100877761841
      ],
      "type": "VEC3"
    },
    {
      "bufferView": 1,
      "byteOffset": 44648,
      "componentType": 5126,
      "count": 18849,
      "max": [
        0.875,
        1.0
      ],
      "min": [
        0.125,
        0.0
      ],
      "type": "VEC2"
    },
    {
      "bufferView": 0,
      "byteOffset": 5180136,
      "componentType": 5125,
      "count": 110592,
      "type": "SCALAR"
    },
    {
      "bufferView": 2,
      "byteOffset": 6235752,
      "componentType": 5126,
      "count": 18849,
      "max": [
        0.0360959991812706,
        0.7808610200881958,
        -0.6607069969177246
      ],
      "min": [
        -0.0392410010099411,
        -0.15124200284481049,
        -1.585386037826538
      ],
      "type": "VEC3"
    },
    {
      "bufferView": 2,
      "byteOffset": 6461940,
      "componentType": 5126,
      "count": 18849,
      "max": [
        0.9999994039535522,
        0.9996048808097839,
        0.9996203780174255
      ],
      "min": [
        -0.9999994039535522,
        -0.9999878406524658,
        -0.9998158812522888
      ],
      "type": "VEC3"
    },
    {
      "bufferView": 1,
      "byteOffset": 195440,
      "componentType": 5126,
      "count": 18849,
      "max": [
        0.875,
        1.0
      ],
      "min": [
        0.125,
        0.0
      ],
      "type": "VEC2"
    },
    {
      "bufferView": 0,
      "byteOffset": 5622504,
      "componentType": 5125,
      "count": 110592,
      "type": "SCALAR"
    },
    {
      "bufferView": 2,
      "byteOffset": 6688128,
      "componentType": 5126,
      "count": 8249,
      "max": [
        1.303542971611023,
        -1.0020179748535156,
        0.04595499858260155
      ],
      "min": [
        0.1317339986562729,
        -1.0709929466247559,
        -0.5076779723167419
      ],
      "type": "VEC3"
    },
    {
      "bufferView": 2,
      "byteOffset": 6787116,
      "componentType": 5126,
      "count": 8249,
      "max": [
        0.9826942682266235,
        0.9999991655349731,
        0.9997860789299011
      ],
      "min": [
        -0.9643236398696899,
        -0.9999877214431763,
        -0.9990603923797607
      ],
      "type": "VEC3"
    },
    {
      "bufferView": 1,
      "byteOffset": 346232,
      "componentType": 5126,
      "count": 8249,
      "max": [
        1.0,
        1.0
      ],
      "min": [
        0.0,
        0.0
      ],
      "type": "VEC2"
    },
    {
      "bufferView": 0,
      "byteOffset": 6064872,
      "componentType": 5125,
      "count": 47616,
      "type": "SCALAR"
    },
    {
      "bufferView": 2,
      "byteOffset": 6886104,
      "componentType": 5126,
      "count": 8249,
      "max": [
        -0.1524980068206787,
        -1.0020179748535156,
        0.04595499858260155
      ],
      "min": [
        -1.3243080377578735,
        -1.0709929466247559,
        -0.5076779723167419
      ],
      "type": "VEC3"
    },
    {
      "bufferView": 2,
      "byteOffset": 6985092,
      "componentType": 5126,
      "count": 8249,
      "max": [
        0.9643236398696899,
        0.9999991655349731,
        0.9997860789299011
      ],
      "min": [
        -0.9826968312263489,
        -0.9999877214431763,
        -0.9990603923797607
      ],
      "type": "VEC3"
    },
    {
      "bufferView": 1,
      "byteOffset": 412224,
      "componentType": 5126,
      "count": 8249,
      "max": [
        1.0,
        1.0
      ],
      "min": [
        0.0,
        0.0
      ],
      "type": "VEC2"
    },
    {
      "bufferView": 0,
      "byteOffset": 6255336,
      "componentType": 5125,
      "count": 47616,
      "type": "SCALAR"
    }
  ],
  "asset": {
    "extras": {
      "author": "My Crea Pro (https://sketchfab.com/Beany-Boy)",
      "license": "CC-BY-4.0 (http://creativecommons.org/licenses/by/4.0/)",
      "source": "https://sketchfab.com/3d-models/magikarp-3d8673a6163e4ffe9f8f4bd28237e094",
      "title": "magikarp"
    },
    "generator": "Sketchfab-12.68.0",
    "version": "2.0"
  },
  "bufferViews": [
    {
      "buffer": 0,
      "byteLength": 6445800,
      "name": "floatBufferViews",
      "target": 34963
    },
    {
      "buffer": 0,
      "byteLength": 478216,
      "byteOffset": 6445800,
      "byteStride": 8,
      "name": "floatBufferViews",
      "target": 34962
    },
    {
      "buffer": 0,
      "byteLength": 7084080,
      "byteOffset": 6924016,
      "byteStride": 12,
      "name": "floatBufferViews",
      "target": 34962
    }
  ],
  "buffers": [
    {
      "byteLength": 14008096,
      "uri": "scene.bin"
    }
  ],
  "extensionsUsed": [
    "KHR_materials_clearcoat",
    "KHR_texture_transform"
  ],
  "images": [
    {
      "uri": "textures/oeil_droit_baseColor.jpeg"
    }
  ],
  "materials": [
    {
      "doubleSided": true,
      "name": "ailleron",
      "pbrMetallicRoughness": {
        "baseColorFactor": [
          0.8373390532284241,
          0.5258311161964573,
          0.08092862017855722,
          1.0
        ],
        "metallicFactor": 0.0,
        "roughnessFactor": 0.0
      }
    },
    {
      "doubleSided": true,
      "name": "bouche",
      "pbrMetallicRoughness": {
        "baseColorFactor": [
          0.5329208617282817,
          0.086097884952355,
          0.086097884952355,
          1.0
        ],
        "metallicFactor": 0.0,
        "roughnessFactor": 0.6
      }
    },
    {
      "doubleSided": true,
      "name": "corps",
      "pbrMetallicRoughness": {
        "baseColorFactor": [
          0.9117889721365602,
          0.07619285067687295,
          0.0,
          1.0
        ],
        "metallicFactor": 0.0,
        "roughnessFactor": 0.05586311098140073
      }
    },
    {
      "doubleSided": true,
      "name": "grande_nageoir",
      "pbrMetallicRoughness": {
        "baseColorFactor": [
          0.9700679790705267,
          0.8580342168674439,
          0.7521476082186843,
          1.0
        ],
        "metallicFactor": 0.0
      }
    },
    {
      "doubleSided": true,
      "extensions": {
        "KHR_materials_clearcoat": {
          "clearcoatFactor": 1.0,
          "clearcoatRoughnessFactor": 0.04
        }
      },
      "name": "langue",
      "pbrMetallicRoughness": {
        "baseColorFactor": [
          0.4404641729196031,
          0.016389669018128033,
          0.016389669018128033,
          1.0
        ],
        "metallicFactor": 0.0,
        "roughnessFactor": 0.0
      }
    },
    {
      "doubleSided": true,
      "name": "moustache",
      "pbrMetallicRoughness": {
        "baseColorFactor": [
          0.7579697625090449,
          0.5155069088517779,
          0.1584573083877382,
          1.0
        ],
        "metallicFactor": 0.0
      }
    },
    {
      "doubleSided": true,
      "name": "nageoire",
      "pbrMetallicRoughness": {
        "baseColorFactor": [
          0.940665205793594,
          0.7668996702675759,
          0.6737236948773042,
          1.0
        ],
        "metallicFactor": 0.0
      }
    },
    {
      "doubleSided": true,
      "extensions": {
        "KHR_materials_clearcoat": {
          "clearcoatFactor": 1.0,
          "clearcoatRoughnessFactor": 0.04
        }
      },
      "name": "oeil_droit",
      "pbrMetallicRoughness": {
        "baseColorTexture": {
          "extensions": {
            "KHR_texture_transform": {
              "offset": [
                0.25624555088445056,
                -0.06450581937305233
              ],
              "scale": [
                2.4928226658964667,
                1
              ]
            }
          },
          "index": 0
        },
        "metallicFactor": 0.0,
        "roughnessFactor": 0.0
      }
    },
    {
      "doubleSided": true,
      "extensions": {
        "KHR_materials_clearcoat": {
          "clearcoatFactor": 1.0,
          "clearcoatRoughnessFactor": 0.04
        }
      },
      "name": "oeil_gauche",
      "pbrMetallicRoughness": {
        "baseColorTexture": {
          "extensions": {
            "KHR_texture_transform": {
              "offset": [
                -0.415319060346796,
                -0.07782246251364944
              ],
              "scale": [
                2.2429783569268418,
                1.0187765354168599
              ]
            }
          },
          "index": 1
        },
        "metallicFactor": 0.0,
        "roughnessFactor": 0.0
      }
    }
  ],
  "meshes": [
    {
      "name": "Object_0",
      "primitives": [
        {
          "attributes": {
            "NORMAL": 1,
            "POSITION": 0,
            "TEXCOORD_0": 2
          },
          "indices": 3,
          "material": 4,
          "mode": 4
        }
      ]
    },
    {
      "name": "Object_1",
      "primitives": [
        {
          "attributes": {
            "NORMAL": 5,
            "POSITION": 4,
            "TEXCOORD_0": 6
          },
          "indices": 7,
          "material": 3,
          "mode": 4
        }
      ]
    },
    {
      "name": "Object_2",
      "primitives": [
        {
          "attributes": {
            "NORMAL": 9,
            "POSITION": 8,
            "TEXCOORD_0": 10
          },
          "indices": 11,
          "material": 1,
          "mode": 4
        }
      ]
    },
    {
      "name": "Object_3",
      "primitives": [
        {
          "attributes": {
            "NORMAL": 13,
            "POSITION": 12
          },
          "indices": 14,
          "material": 2,
          "mode": 4
        }
      ]
    },
    {
      "name": "Object_4",
      "primitives": [
        {
          "attributes": {
            "NORMAL": 16,
            "POSITION": 15
          },
          "indices": 17,
          "material": 2,
          "mode": 4
        }
      ]
    },
    {
      "name": "Object_5",
      "primitives": [
        {
          "attributes": {
            "NORMAL": 19,
            "POSITION": 18
          },
          "indices": 20,
          "material": 2,
          "mode": 4
        }
      ]
    },
    {
      "name": "Object_6",
      "primitives": [
        {
          "attributes": {
            "NORMAL": 22,
            "POSITION": 21
          },
          "indices": 23,
          "material": 2,
          "mode": 4
        }
      ]
    },
    {
      "name": "Object_7",
      "primitives": [
        {
          "attributes": {
            "NORMAL": 25,
            "POSITION": 24,
            "TEXCOORD_0": 26
          },
          "indices": 27,
          "material": 8,
          "mode": 4
        }
      ]
    },
    {
      "name": "Object_8",
      "primitives": [
        {
          "attributes": {
            "NORMAL": 29,
            "POSITION": 28,
            "TEXCOORD_0": 30
          },
          "indices": 31,
          "material": 7,
          "mode": 4
        }
      ]
    },
    {
      "name": "Object_9",
      "primitives": [
        {
          "attributes": {
            "NORMAL": 33,
            "POSITION": 32,
            "TEXCOORD_0": 34
          },
          "indices": 35,
          "material": 6,
          "mode": 4
        }
      ]
    },
    {
      "name": "Object_10",
      "primitives": [
        {
          "attributes": {
            "NORMAL": 37,
            "POSITION": 36,
            "TEXCOORD_0": 38
          },
          "indices": 39,
          "material": 0,
          "mode": 4
        }
      ]
    },
    {
      "name": "Object_11",
      "primitives": [
        {
          "attributes": {
            "NORMAL": 41,
            "POSITION": 40,
            "TEXCOORD_0": 42
          },
          "indices": 43,
          "material": 0,
          "mode": 4
        }
      ]
    },
    {
      "name": "Object_12",
      "primitives": [
        {
          "attributes": {
            "NORMAL": 45,
            "POSITION": 44,
            "TEXCOORD_0": 46
          },
          "indices": 47,
          "material": 5,
          "mode": 4
        }
      ]
    },
    {
      "name": "Object_13",
      "primitives": [
        {
          "attributes": {
            "NORMAL": 49,
            "POSITION": 48,
            "TEXCOORD_0": 50
          },
          "indices": 51,
          "material": 5,
          "mode": 4
        }
      ]
    }
  ],
  "nodes": [
    {
      "children": [
        1
      ],
      "matrix": [
        1.0,
        0.0,
        0.0,
        0.0,
        0.0,
        2.220446049250313e-16,
        -1.0,
        0.0,
        0.0,
        1.0,
        2.220446049250313e-16,
        0.0,
        0.0,
        0.0,
        0.0,
        1.0
      ],
      "name": "Sketchfab_model"
    },
    {
      "children": [
        2,
        3,
        4,
        5,
        6,
        7,
        8,
        9,
        10,
        11,
        12,
        13,
        14,
        15
      ],
      "name": "magicarpe.obj.cleaner.materialmerger.gles"
    },
    {
      "mesh": 0,
      "name": "Object_2"
    },
    {
      "mesh": 1,
      "name": "Object_3"
    },
    {
      "mesh": 2,
      "name": "Object_4"
    },
    {
      "mesh": 3,
      "name": "Object_5"
    },
    {
      "mesh": 4,
      "name": "Object_6"
    },
    {
      "mesh": 5,
      "name": "Object_7"
    },
    {
      "mesh": 6,
      "name": "Object_8"
    },
    {
      "mesh": 7,
      "name": "Object_9"
    },
    {
      "mesh": 8,
      "name": "Object_10"
    },
    {
      "mesh": 9,
      "name": "Object_11"
    },
    {
      "mesh": 10,
      "name": "Object_12"
    },
    {
      "mesh": 11,
      "name": "Object_13"
    },
    {
      "mesh": 12,
      "name": "Object_14"
    },
    {
      "mesh": 13,
      "name": "Object_15"
    }
  ],
  "samplers": [
    {
      "magFilter": 9729,
      "minFilter": 9987,
      "wrapS": 33071,
      "wrapT": 33071
    },
    {
      "magFilter": 9729,
      "minFilter": 9987,
      "wrapS": 10497,
      "wrapT": 10497
    }
  ],
  "scene": 0,
  "scenes": [
    {
      "name": "Sketchfab_Scene",
      "nodes": [
        0
      ]
    }
  ],
  "textures": [
    {
      "sampler": 0,
      "source": 0
    },
    {
      "sampler": 1,
      "source": 0
    }
  ]
}
